<svg width="16.000000" height="16.000000" viewBox="0 0 16 16" fill="none" xmlns="http://www.w3.org/2000/svg" xmlns:xlink="http://www.w3.org/1999/xlink">
	<desc>
			Created with Pixso.
	</desc>
	<defs/>
	<path id="Vector" d="M-0.47 4.88L2.8 4.88L2.8 15.36L-0.47 15.36L-0.47 4.88Z" fill="#7572D5" fill-opacity="1.000000" fill-rule="evenodd"/>
	<path id="Vector" d="M1.1 -0.06C-0.11 -0.06 -0.91 0.72 -0.91 1.75C-0.91 2.77 -0.14 3.57 1.05 3.57L1.08 3.57C2.31 3.57 3.08 2.76 3.07 1.75C3.04 0.72 2.3 -0.06 1.1 -0.06Z" fill="#7572D5" fill-opacity="1.000000" fill-rule="nonzero"/>
	<path id="Vector" d="M11.74 4.78C9.87 4.78 8.69 5.81 8.48 6.53L8.48 4.88L4.8 4.88C4.84 5.75 4.8 15.36 4.8 15.36L8.48 15.36L8.48 9.7C8.48 9.38 8.46 9.06 8.55 8.84C8.8 8.21 9.35 7.55 10.33 7.55C11.6 7.55 12.18 8.52 12.18 9.94L12.18 15.36L15.9 15.36L15.9 9.53C15.9 6.29 14.07 4.78 11.74 4.78Z" fill="#7572D5" fill-opacity="1.000000" fill-rule="nonzero"/>
</svg>
