<svg width="21.000000" height="21.000000" viewBox="0 0 21 21" fill="none" xmlns="http://www.w3.org/2000/svg" xmlns:xlink="http://www.w3.org/1999/xlink">
	<desc>
			Created with Pixso.
	</desc>
	<defs>
		<clipPath id="clip20_2002">
			<rect width="21.000000" height="21.000000" fill="white" fill-opacity="0"/>
		</clipPath>
	</defs>
	<rect width="21.000000" height="21.000000" fill="#FFFFFF" fill-opacity="0"/>
	<g clip-path="url(#clip20_2002)">
		<path d="M15.65 2.1L5.34 2.1C3.55 2.1 2.09 3.55 2.09 5.34L2.09 8.77L2.09 15.65C2.09 17.44 3.55 18.9 5.34 18.9L15.65 18.9C17.44 18.9 18.9 17.44 18.9 15.65L18.9 8.77L18.9 5.34C18.89 3.55 17.43 2.1 15.65 2.1ZM16.58 4.03L16.95 4.03L16.95 4.4L16.95 6.88L14.11 6.88L14.1 4.04L16.58 4.03ZM8.09 8.77C8.63 8.03 9.5 7.53 10.49 7.53C11.47 7.53 12.35 8.02 12.88 8.77C13.24 9.25 13.44 9.85 13.44 10.49C13.44 12.12 12.12 13.45 10.48 13.45C8.85 13.45 7.54 12.12 7.54 10.49C7.54 9.85 7.75 9.25 8.09 8.77ZM17.25 15.64C17.25 16.53 16.53 17.25 15.65 17.25L5.34 17.25C4.46 17.25 3.74 16.53 3.74 15.64L3.74 8.77L6.24 8.77C6.03 9.3 5.9 9.88 5.9 10.49C5.9 13.02 7.96 15.08 10.5 15.08C13.03 15.08 15.09 13.02 15.09 10.49C15.09 9.88 14.96 9.3 14.75 8.77L17.25 8.77L17.25 15.64Z" fill="#7572D5" fill-opacity="1.000000" fill-rule="nonzero"/>
	</g>
</svg>
