<svg width="21.000000" height="21.000000" viewBox="0 0 21 21" fill="none" xmlns="http://www.w3.org/2000/svg" xmlns:xlink="http://www.w3.org/1999/xlink">
	<desc>
			Created with Pixso.
	</desc>
	<defs>
		<clipPath id="clip20_1987">
			<rect width="20.999998" height="20.999998" transform="translate(0.000000 -0.999512)" fill="white" fill-opacity="0"/>
		</clipPath>
	</defs>
	<rect width="20.999998" height="20.999998" transform="translate(0.000000 -0.999512)" fill="#FFFFFF" fill-opacity="0"/>
	<g clip-path="url(#clip20_1987)">
		<path d="M2.53 6.88L5.8 6.88L5.8 17.36L2.53 17.36L2.53 6.88Z" fill="#7572D5" fill-opacity="1.000000" fill-rule="evenodd"/>
		<path d="M4.1 1.94C2.89 1.94 2.09 2.72 2.09 3.75C2.09 4.77 2.86 5.57 4.05 5.57L4.08 5.57C5.31 5.57 6.08 4.76 6.07 3.75C6.04 2.72 5.3 1.94 4.1 1.94Z" fill="#7572D5" fill-opacity="1.000000" fill-rule="nonzero"/>
		<path d="M14.74 6.78C12.87 6.78 11.69 7.81 11.48 8.53L11.48 6.88L7.8 6.88C7.84 7.75 7.8 17.36 7.8 17.36L11.48 17.36L11.48 11.7C11.48 11.38 11.46 11.06 11.55 10.84C11.8 10.21 12.35 9.55 13.33 9.55C14.6 9.55 15.18 10.52 15.18 11.94L15.18 17.36L18.9 17.36L18.9 11.53C18.9 8.29 17.07 6.78 14.74 6.78Z" fill="#7572D5" fill-opacity="1.000000" fill-rule="nonzero"/>
	</g>
</svg>
