<svg width="16.000000" height="16.000000" viewBox="0 0 16 16" fill="none" xmlns="http://www.w3.org/2000/svg" xmlns:xlink="http://www.w3.org/1999/xlink">
	<desc>
			Created with Pixso.
	</desc>
	<defs/>
	<path id="Vector" d="M12.65 -0.9L2.34 -0.9C0.55 -0.9 -0.91 0.55 -0.91 2.34L-0.91 5.77L-0.91 12.65C-0.91 14.44 0.55 15.9 2.34 15.9L12.65 15.9C14.44 15.9 15.9 14.44 15.9 12.65L15.9 5.77L15.9 2.34C15.89 0.55 14.43 -0.9 12.65 -0.9ZM13.58 1.03L13.95 1.03L13.95 1.4L13.95 3.88L11.11 3.88L11.1 1.04L13.58 1.03ZM5.09 5.77C5.63 5.03 6.5 4.53 7.49 4.53C8.47 4.53 9.35 5.02 9.88 5.77C10.24 6.25 10.44 6.85 10.44 7.49C10.44 9.12 9.12 10.45 7.48 10.45C5.85 10.45 4.54 9.12 4.54 7.49C4.54 6.85 4.75 6.25 5.09 5.77ZM14.25 12.64C14.25 13.53 13.53 14.25 12.65 14.25L2.34 14.25C1.46 14.25 0.74 13.53 0.74 12.64L0.74 5.77L3.24 5.77C3.03 6.3 2.9 6.88 2.9 7.49C2.9 10.02 4.96 12.08 7.49 12.08C10.03 12.08 12.09 10.02 12.09 7.49C12.09 6.88 11.96 6.3 11.75 5.77L14.25 5.77L14.25 12.64Z" fill="#7572D5" fill-opacity="1.000000" fill-rule="nonzero"/>
</svg>
