<svg width="21.000000" height="21.000000" viewBox="0 0 21 21" fill="none" xmlns="http://www.w3.org/2000/svg" xmlns:xlink="http://www.w3.org/1999/xlink">
	<desc>
			Created with Pixso.
	</desc>
	<defs>
		<clipPath id="clip20_1994">
			<rect width="20.999998" height="20.999998" transform="translate(-0.999939 -0.999512)" fill="white" fill-opacity="0"/>
		</clipPath>
	</defs>
	<rect width="20.999998" height="20.999998" transform="translate(-0.999939 -0.999512)" fill="#FFFFFF" fill-opacity="0"/>
	<g clip-path="url(#clip20_1994)">
		<path d="M17.16 12.99C16.8 12.53 16.38 12.13 15.98 11.73C15.84 11.59 15.69 11.45 15.55 11.3C15.14 10.89 15.12 10.73 15.45 10.26C15.67 9.94 15.91 9.61 16.14 9.3C16.35 9.01 16.56 8.72 16.77 8.42L16.81 8.36C17.21 7.8 17.61 7.21 17.83 6.51C17.89 6.32 17.95 6.04 17.81 5.82C17.68 5.59 17.41 5.52 17.23 5.48C17.14 5.47 17.05 5.47 16.96 5.47L14.38 5.46L14.35 5.46C13.96 5.46 13.7 5.65 13.55 6.05C13.41 6.42 13.25 6.82 13.07 7.2C12.71 7.96 12.25 8.83 11.59 9.56L11.56 9.59C11.48 9.67 11.4 9.77 11.33 9.77C11.32 9.77 11.31 9.77 11.3 9.77C11.16 9.71 11.07 9.37 11.07 9.21C11.07 9.21 11.07 9.2 11.07 9.2L11.07 6.11C11.07 6.09 11.07 6.08 11.07 6.07C11 5.57 10.86 5.26 10.31 5.15C10.29 5.14 10.28 5.14 10.26 5.14L7.58 5.14C7.14 5.14 6.9 5.33 6.67 5.6C6.61 5.68 6.48 5.83 6.54 6.02C6.61 6.2 6.82 6.24 6.88 6.26C7.22 6.32 7.41 6.54 7.46 6.91C7.56 7.56 7.57 8.25 7.5 9.08C7.48 9.31 7.44 9.49 7.38 9.65C7.37 9.68 7.31 9.8 7.26 9.8C7.24 9.8 7.2 9.79 7.11 9.73C6.9 9.58 6.75 9.37 6.57 9.11C5.96 8.22 5.46 7.25 5.02 6.12C4.85 5.71 4.55 5.48 4.16 5.47C3.73 5.47 3.34 5.46 2.97 5.46C2.56 5.46 2.19 5.47 1.82 5.47C1.51 5.48 1.29 5.58 1.18 5.77C1.06 5.95 1.07 6.2 1.2 6.5C2.23 8.88 3.17 10.61 4.24 12.11C4.99 13.16 5.74 13.89 6.6 14.4C7.51 14.94 8.53 15.2 9.72 15.2C9.85 15.2 9.99 15.2 10.13 15.19C10.82 15.16 11.08 14.9 11.11 14.2C11.13 13.85 11.16 13.47 11.33 13.16C11.44 12.96 11.54 12.96 11.57 12.96C11.63 12.96 11.71 12.99 11.8 13.04C11.95 13.14 12.08 13.28 12.18 13.4C12.28 13.51 12.38 13.63 12.48 13.74C12.69 13.99 12.91 14.24 13.14 14.48C13.64 15.01 14.19 15.24 14.83 15.19L17.2 15.19C17.2 15.19 17.21 15.19 17.21 15.19C17.45 15.18 17.65 15.04 17.77 14.82C17.92 14.55 17.92 14.2 17.77 13.89C17.59 13.54 17.36 13.24 17.16 12.99Z" fill="#7572D5" fill-opacity="1.000000" fill-rule="nonzero"/>
	</g>
</svg>
