<svg width="16.000000" height="10.000000" viewBox="0 0 16 10" fill="none" xmlns="http://www.w3.org/2000/svg" xmlns:xlink="http://www.w3.org/1999/xlink">
	<desc>
			Created with Pixso.
	</desc>
	<defs/>
	<path id="Vector" d="M15.16 6.99C14.8 6.53 14.38 6.13 13.98 5.73C13.84 5.59 13.69 5.45 13.55 5.3C13.14 4.89 13.12 4.73 13.45 4.26C13.67 3.94 13.91 3.61 14.14 3.3C14.35 3.01 14.56 2.72 14.77 2.42L14.81 2.36C15.21 1.8 15.61 1.21 15.83 0.51C15.89 0.32 15.95 0.04 15.81 -0.18C15.68 -0.41 15.41 -0.48 15.23 -0.52C15.14 -0.53 15.05 -0.53 14.96 -0.53L12.38 -0.54L12.35 -0.54C11.96 -0.54 11.7 -0.35 11.55 0.05C11.41 0.42 11.25 0.82 11.07 1.2C10.71 1.96 10.25 2.83 9.59 3.56L9.56 3.59C9.48 3.67 9.4 3.77 9.33 3.77C9.32 3.77 9.31 3.77 9.3 3.77C9.16 3.71 9.07 3.37 9.07 3.21C9.07 3.21 9.07 3.2 9.07 3.2L9.07 0.11C9.07 0.09 9.07 0.08 9.07 0.07C9 -0.43 8.86 -0.74 8.31 -0.85C8.29 -0.86 8.28 -0.86 8.26 -0.86L5.58 -0.86C5.14 -0.86 4.9 -0.67 4.67 -0.4C4.61 -0.32 4.48 -0.17 4.54 0.02C4.61 0.2 4.82 0.24 4.88 0.26C5.22 0.32 5.41 0.54 5.46 0.91C5.56 1.56 5.57 2.25 5.5 3.08C5.48 3.31 5.44 3.49 5.38 3.65C5.37 3.68 5.31 3.8 5.26 3.8C5.24 3.8 5.2 3.79 5.11 3.73C4.9 3.58 4.75 3.37 4.57 3.11C3.96 2.22 3.46 1.25 3.02 0.12C2.85 -0.29 2.55 -0.52 2.16 -0.53C1.73 -0.53 1.34 -0.54 0.97 -0.54C0.56 -0.54 0.19 -0.53 -0.18 -0.53C-0.49 -0.52 -0.71 -0.42 -0.82 -0.23C-0.94 -0.05 -0.93 0.2 -0.8 0.5C0.23 2.88 1.17 4.61 2.24 6.11C2.99 7.16 3.74 7.89 4.6 8.4C5.51 8.94 6.53 9.2 7.72 9.2C7.85 9.2 7.99 9.2 8.13 9.19C8.82 9.16 9.08 8.9 9.11 8.2C9.13 7.85 9.16 7.47 9.33 7.16C9.44 6.96 9.54 6.96 9.57 6.96C9.63 6.96 9.71 6.99 9.8 7.04C9.95 7.14 10.08 7.28 10.18 7.4C10.28 7.51 10.38 7.63 10.48 7.74C10.69 7.99 10.91 8.24 11.14 8.48C11.64 9.01 12.19 9.24 12.83 9.19L15.2 9.19C15.2 9.19 15.21 9.19 15.21 9.19C15.45 9.18 15.65 9.04 15.77 8.82C15.92 8.55 15.92 8.2 15.77 7.89C15.59 7.54 15.36 7.24 15.16 6.99Z" fill="#7572D5" fill-opacity="1.000000" fill-rule="nonzero"/>
</svg>
